<mxfile host="65bd71144e">
    <diagram id="jHVeWQUmWTlDrvnYxQ6H" name="第 1 页">
        <mxGraphModel dx="384" dy="412" grid="1" gridSize="10" guides="1" tooltips="1" connect="1" arrows="1" fold="1" page="1" pageScale="1" pageWidth="827" pageHeight="1169" background="none" math="0" shadow="0">
            <root>
                <mxCell id="0"/>
                <mxCell id="1" parent="0"/>
                <mxCell id="5" value="" style="rounded=0;whiteSpace=wrap;html=1;align=left;" parent="1" vertex="1">
                    <mxGeometry x="56" y="260" width="336" height="300" as="geometry"/>
                </mxCell>
                <mxCell id="6" value="Instruction Unit" style="text;html=1;align=center;verticalAlign=middle;resizable=0;points=[];autosize=1;strokeColor=none;fillColor=none;fontSize=19;fontFamily=Times New Roman;" parent="1" vertex="1">
                    <mxGeometry x="152" y="270" width="140" height="40" as="geometry"/>
                </mxCell>
                <mxCell id="10" value="" style="edgeStyle=none;html=1;fontFamily=Times New Roman;fontSize=19;" parent="1" source="7" target="9" edge="1">
                    <mxGeometry relative="1" as="geometry"/>
                </mxCell>
                <mxCell id="7" value="Fetcher" style="rounded=0;whiteSpace=wrap;html=1;fontFamily=Times New Roman;fontSize=19;" parent="1" vertex="1">
                    <mxGeometry x="72" y="400" width="100" height="50" as="geometry"/>
                </mxCell>
                <mxCell id="12" value="&lt;font style=&quot;font-size: 14px;&quot;&gt;push&lt;/font&gt;" style="edgeStyle=none;html=1;fontFamily=Times New Roman;fontSize=19;" parent="1" source="9" target="11" edge="1">
                    <mxGeometry relative="1" as="geometry"/>
                </mxCell>
                <mxCell id="9" value="Decoder" style="rounded=0;whiteSpace=wrap;html=1;fontFamily=Times New Roman;fontSize=19;" parent="1" vertex="1">
                    <mxGeometry x="72" y="320" width="100" height="50" as="geometry"/>
                </mxCell>
                <mxCell id="11" value="Instruction&lt;br&gt;Queue" style="rounded=0;whiteSpace=wrap;html=1;fontFamily=Times New Roman;fontSize=19;" parent="1" vertex="1">
                    <mxGeometry x="261" y="320" width="115" height="50" as="geometry"/>
                </mxCell>
                <mxCell id="14" value="" style="shape=table;html=1;whiteSpace=wrap;startSize=0;container=1;collapsible=0;childLayout=tableLayout;fontFamily=Times New Roman;fontSize=14;" parent="1" vertex="1">
                    <mxGeometry x="261" y="370" width="115" height="90" as="geometry"/>
                </mxCell>
                <mxCell id="15" value="" style="shape=tableRow;horizontal=0;startSize=0;swimlaneHead=0;swimlaneBody=0;top=0;left=0;bottom=0;right=0;collapsible=0;dropTarget=0;fillColor=none;points=[[0,0.5],[1,0.5]];portConstraint=eastwest;fontFamily=Times New Roman;fontSize=14;" parent="14" vertex="1">
                    <mxGeometry width="115" height="15" as="geometry"/>
                </mxCell>
                <mxCell id="16" value="" style="shape=partialRectangle;html=1;whiteSpace=wrap;connectable=0;fillColor=none;top=0;left=0;bottom=0;right=0;overflow=hidden;fontFamily=Times New Roman;fontSize=14;" parent="15" vertex="1">
                    <mxGeometry width="115" height="15" as="geometry">
                        <mxRectangle width="115" height="15" as="alternateBounds"/>
                    </mxGeometry>
                </mxCell>
                <mxCell id="19" value="" style="shape=tableRow;horizontal=0;startSize=0;swimlaneHead=0;swimlaneBody=0;top=0;left=0;bottom=0;right=0;collapsible=0;dropTarget=0;fillColor=none;points=[[0,0.5],[1,0.5]];portConstraint=eastwest;fontFamily=Times New Roman;fontSize=14;" parent="14" vertex="1">
                    <mxGeometry y="15" width="115" height="15" as="geometry"/>
                </mxCell>
                <mxCell id="20" value="" style="shape=partialRectangle;html=1;whiteSpace=wrap;connectable=0;fillColor=none;top=0;left=0;bottom=0;right=0;overflow=hidden;fontFamily=Times New Roman;fontSize=14;" parent="19" vertex="1">
                    <mxGeometry width="115" height="15" as="geometry">
                        <mxRectangle width="115" height="15" as="alternateBounds"/>
                    </mxGeometry>
                </mxCell>
                <mxCell id="23" value="" style="shape=tableRow;horizontal=0;startSize=0;swimlaneHead=0;swimlaneBody=0;top=0;left=0;bottom=0;right=0;collapsible=0;dropTarget=0;fillColor=none;points=[[0,0.5],[1,0.5]];portConstraint=eastwest;fontFamily=Times New Roman;fontSize=14;" parent="14" vertex="1">
                    <mxGeometry y="30" width="115" height="15" as="geometry"/>
                </mxCell>
                <mxCell id="24" value="" style="shape=partialRectangle;html=1;whiteSpace=wrap;connectable=0;fillColor=none;top=0;left=0;bottom=0;right=0;overflow=hidden;fontFamily=Times New Roman;fontSize=14;" parent="23" vertex="1">
                    <mxGeometry width="115" height="15" as="geometry">
                        <mxRectangle width="115" height="15" as="alternateBounds"/>
                    </mxGeometry>
                </mxCell>
                <mxCell id="27" style="shape=tableRow;horizontal=0;startSize=0;swimlaneHead=0;swimlaneBody=0;top=0;left=0;bottom=0;right=0;collapsible=0;dropTarget=0;fillColor=none;points=[[0,0.5],[1,0.5]];portConstraint=eastwest;fontFamily=Times New Roman;fontSize=14;" parent="14" vertex="1">
                    <mxGeometry y="45" width="115" height="15" as="geometry"/>
                </mxCell>
                <mxCell id="28" style="shape=partialRectangle;html=1;whiteSpace=wrap;connectable=0;fillColor=none;top=0;left=0;bottom=0;right=0;overflow=hidden;fontFamily=Times New Roman;fontSize=14;" parent="27" vertex="1">
                    <mxGeometry width="115" height="15" as="geometry">
                        <mxRectangle width="115" height="15" as="alternateBounds"/>
                    </mxGeometry>
                </mxCell>
                <mxCell id="29" style="shape=tableRow;horizontal=0;startSize=0;swimlaneHead=0;swimlaneBody=0;top=0;left=0;bottom=0;right=0;collapsible=0;dropTarget=0;fillColor=none;points=[[0,0.5],[1,0.5]];portConstraint=eastwest;fontFamily=Times New Roman;fontSize=14;" parent="14" vertex="1">
                    <mxGeometry y="60" width="115" height="15" as="geometry"/>
                </mxCell>
                <mxCell id="30" style="shape=partialRectangle;html=1;whiteSpace=wrap;connectable=0;fillColor=none;top=0;left=0;bottom=0;right=0;overflow=hidden;fontFamily=Times New Roman;fontSize=14;" parent="29" vertex="1">
                    <mxGeometry width="115" height="15" as="geometry">
                        <mxRectangle width="115" height="15" as="alternateBounds"/>
                    </mxGeometry>
                </mxCell>
                <mxCell id="31" style="shape=tableRow;horizontal=0;startSize=0;swimlaneHead=0;swimlaneBody=0;top=0;left=0;bottom=0;right=0;collapsible=0;dropTarget=0;fillColor=none;points=[[0,0.5],[1,0.5]];portConstraint=eastwest;fontFamily=Times New Roman;fontSize=14;" parent="14" vertex="1">
                    <mxGeometry y="75" width="115" height="15" as="geometry"/>
                </mxCell>
                <mxCell id="32" style="shape=partialRectangle;html=1;whiteSpace=wrap;connectable=0;fillColor=none;top=0;left=0;bottom=0;right=0;overflow=hidden;fontFamily=Times New Roman;fontSize=14;" parent="31" vertex="1">
                    <mxGeometry width="115" height="15" as="geometry">
                        <mxRectangle width="115" height="15" as="alternateBounds"/>
                    </mxGeometry>
                </mxCell>
                <mxCell id="33" value="" style="rounded=0;whiteSpace=wrap;html=1;fontFamily=Times New Roman;fontSize=14;" parent="1" vertex="1">
                    <mxGeometry x="82" y="780" width="240" height="200" as="geometry"/>
                </mxCell>
                <mxCell id="34" value="&lt;font style=&quot;font-size: 21px;&quot;&gt;Load Store Buffer&lt;/font&gt;" style="rounded=0;whiteSpace=wrap;html=1;fontFamily=Times New Roman;fontSize=14;" parent="1" vertex="1">
                    <mxGeometry x="115" y="668" width="174" height="60" as="geometry"/>
                </mxCell>
                <mxCell id="54" value="&lt;font style=&quot;font-size: 21px;&quot;&gt;Reservation&lt;br&gt;Station&lt;br&gt;&lt;/font&gt;" style="rounded=0;whiteSpace=wrap;html=1;fontFamily=Times New Roman;fontSize=14;" parent="1" vertex="1">
                    <mxGeometry x="486" y="668" width="170" height="90" as="geometry"/>
                </mxCell>
                <mxCell id="55" value="&lt;font style=&quot;font-size: 21px;&quot;&gt;Recoder&lt;br&gt;Buffer&lt;br&gt;&lt;/font&gt;" style="rounded=0;whiteSpace=wrap;html=1;fontFamily=Times New Roman;fontSize=14;" parent="1" vertex="1">
                    <mxGeometry x="486" y="270" width="170" height="90" as="geometry"/>
                </mxCell>
                <mxCell id="56" value="&lt;font style=&quot;font-size: 21px;&quot;&gt;ALU&lt;br&gt;&lt;/font&gt;" style="rounded=0;whiteSpace=wrap;html=1;fontFamily=Times New Roman;fontSize=14;" parent="1" vertex="1">
                    <mxGeometry x="461" y="835" width="220" height="90" as="geometry"/>
                </mxCell>
                <mxCell id="57" value="&lt;font style=&quot;font-size: 21px;&quot;&gt;Register&lt;br&gt;File&lt;br&gt;&lt;/font&gt;" style="rounded=0;whiteSpace=wrap;html=1;fontFamily=Times New Roman;fontSize=14;" parent="1" vertex="1">
                    <mxGeometry x="482" y="487" width="174" height="95" as="geometry"/>
                </mxCell>
                <mxCell id="58" value="&lt;font style=&quot;font-size: 19px;&quot;&gt;Memory&lt;/font&gt;" style="rounded=0;whiteSpace=wrap;html=1;fontFamily=Times New Roman;fontSize=14;" parent="1" vertex="1">
                    <mxGeometry x="112" y="880" width="180" height="80" as="geometry"/>
                </mxCell>
                <mxCell id="59" value="&lt;font style=&quot;&quot; face=&quot;Times New Roman&quot;&gt;&lt;font style=&quot;font-size: 19px;&quot;&gt;Memory Unit&lt;/font&gt;&lt;br&gt;&lt;/font&gt;" style="text;html=1;strokeColor=none;fillColor=none;align=center;verticalAlign=middle;whiteSpace=wrap;rounded=0;" parent="1" vertex="1">
                    <mxGeometry x="112" y="787" width="180" height="30" as="geometry"/>
                </mxCell>
                <mxCell id="65" value="" style="edgeStyle=none;html=1;fontFamily=Times New Roman;fontSize=17;entryX=0.25;entryY=0;entryDx=0;entryDy=0;" parent="1" source="60" target="58" edge="1">
                    <mxGeometry relative="1" as="geometry"/>
                </mxCell>
                <mxCell id="60" value="&lt;font style=&quot;font-size: 17px;&quot;&gt;MAR&lt;/font&gt;" style="rounded=0;whiteSpace=wrap;html=1;fontFamily=Times New Roman;fontSize=14;" parent="1" vertex="1">
                    <mxGeometry x="122" y="824" width="70" height="30" as="geometry"/>
                </mxCell>
                <mxCell id="61" value="&lt;font style=&quot;font-size: 17px;&quot;&gt;MDR&lt;/font&gt;" style="rounded=0;whiteSpace=wrap;html=1;fontFamily=Times New Roman;fontSize=14;" parent="1" vertex="1">
                    <mxGeometry x="212" y="825" width="70" height="30" as="geometry"/>
                </mxCell>
                <mxCell id="63" value="" style="endArrow=classic;startArrow=classic;html=1;fontFamily=Times New Roman;fontSize=17;entryX=0.5;entryY=1;entryDx=0;entryDy=0;exitX=0.75;exitY=0;exitDx=0;exitDy=0;" parent="1" source="58" target="61" edge="1">
                    <mxGeometry width="50" height="50" relative="1" as="geometry">
                        <mxPoint x="282" y="750" as="sourcePoint"/>
                        <mxPoint x="332" y="700" as="targetPoint"/>
                    </mxGeometry>
                </mxCell>
                <mxCell id="67" value="Issuer" style="rounded=0;whiteSpace=wrap;html=1;fontFamily=Times New Roman;fontSize=19;" parent="1" vertex="1">
                    <mxGeometry x="261" y="490" width="115" height="50" as="geometry"/>
                </mxCell>
                <mxCell id="68" value="" style="endArrow=classic;html=1;fontFamily=Times New Roman;fontSize=17;entryX=0.5;entryY=0;entryDx=0;entryDy=0;exitX=0.5;exitY=1;exitDx=0;exitDy=0;" parent="1" source="14" target="67" edge="1">
                    <mxGeometry width="50" height="50" relative="1" as="geometry">
                        <mxPoint x="324.97500000000014" y="460" as="sourcePoint"/>
                        <mxPoint x="317.5" y="490" as="targetPoint"/>
                    </mxGeometry>
                </mxCell>
                <mxCell id="71" value="" style="line;strokeWidth=5;html=1;" vertex="1" parent="1">
                    <mxGeometry x="82" y="1050" width="684" height="10" as="geometry"/>
                </mxCell>
                <mxCell id="73" value="" style="line;strokeWidth=5;direction=south;html=1;" vertex="1" parent="1">
                    <mxGeometry x="762" y="260" width="10" height="797" as="geometry"/>
                </mxCell>
                <mxCell id="75" value="" style="endArrow=classic;startArrow=classic;html=1;exitX=0.5;exitY=1;exitDx=0;exitDy=0;entryX=0.5;entryY=0;entryDx=0;entryDy=0;strokeWidth=2;" edge="1" parent="1" source="34" target="33">
                    <mxGeometry width="50" height="50" relative="1" as="geometry">
                        <mxPoint x="426" y="700" as="sourcePoint"/>
                        <mxPoint x="476" y="650" as="targetPoint"/>
                    </mxGeometry>
                </mxCell>
                <mxCell id="77" value="" style="endArrow=classic;html=1;entryX=0.5;entryY=0;entryDx=0;entryDy=0;exitX=0.47;exitY=0.999;exitDx=0;exitDy=0;exitPerimeter=0;strokeWidth=2;" edge="1" parent="1" source="5" target="34">
                    <mxGeometry width="50" height="50" relative="1" as="geometry">
                        <mxPoint x="206" y="440" as="sourcePoint"/>
                        <mxPoint x="476" y="360" as="targetPoint"/>
                    </mxGeometry>
                </mxCell>
                <mxCell id="79" value="" style="edgeStyle=elbowEdgeStyle;elbow=horizontal;endArrow=classic;html=1;curved=0;rounded=0;endSize=8;startSize=8;exitX=1;exitY=0.75;exitDx=0;exitDy=0;strokeWidth=2;" edge="1" parent="1" source="5" target="55">
                    <mxGeometry width="50" height="50" relative="1" as="geometry">
                        <mxPoint x="336" y="630" as="sourcePoint"/>
                        <mxPoint x="446" y="620" as="targetPoint"/>
                        <Array as="points">
                            <mxPoint x="436" y="480"/>
                        </Array>
                    </mxGeometry>
                </mxCell>
                <mxCell id="80" value="" style="edgeStyle=elbowEdgeStyle;elbow=horizontal;endArrow=classic;html=1;curved=0;rounded=0;endSize=8;startSize=8;exitX=1;exitY=0.75;exitDx=0;exitDy=0;entryX=0;entryY=0.5;entryDx=0;entryDy=0;strokeWidth=2;" edge="1" parent="1" source="5" target="54">
                    <mxGeometry width="50" height="50" relative="1" as="geometry">
                        <mxPoint x="436" y="610" as="sourcePoint"/>
                        <mxPoint x="486" y="560" as="targetPoint"/>
                        <Array as="points">
                            <mxPoint x="436" y="530"/>
                        </Array>
                    </mxGeometry>
                </mxCell>
                <mxCell id="81" value="&lt;font style=&quot;font-size: 15px;&quot;&gt;A,B&lt;/font&gt;" style="endArrow=classic;html=1;entryX=0.5;entryY=0;entryDx=0;entryDy=0;strokeWidth=3;exitX=0.5;exitY=1;exitDx=0;exitDy=0;" edge="1" parent="1" source="54" target="56">
                    <mxGeometry width="50" height="50" relative="1" as="geometry">
                        <mxPoint x="576" y="720" as="sourcePoint"/>
                        <mxPoint x="531" y="819" as="targetPoint"/>
                    </mxGeometry>
                </mxCell>
                <mxCell id="82" value="" style="endArrow=classic;html=1;strokeWidth=4;entryX=0.714;entryY=0.351;entryDx=0;entryDy=0;entryPerimeter=0;" edge="1" parent="1" source="56" target="71">
                    <mxGeometry width="50" height="50" relative="1" as="geometry">
                        <mxPoint x="556" y="1000" as="sourcePoint"/>
                        <mxPoint x="566" y="1020" as="targetPoint"/>
                    </mxGeometry>
                </mxCell>
                <mxCell id="83" value="&lt;font style=&quot;font-size: 15px;&quot;&gt;result&lt;/font&gt;" style="edgeLabel;html=1;align=center;verticalAlign=middle;resizable=0;points=[];" vertex="1" connectable="0" parent="82">
                    <mxGeometry x="-0.1778" y="1" relative="1" as="geometry">
                        <mxPoint as="offset"/>
                    </mxGeometry>
                </mxCell>
                <mxCell id="84" value="" style="endArrow=classic;html=1;strokeWidth=4;entryX=0.167;entryY=0.821;entryDx=0;entryDy=0;entryPerimeter=0;exitX=0.479;exitY=1;exitDx=0;exitDy=0;exitPerimeter=0;" edge="1" parent="1" source="33" target="71">
                    <mxGeometry width="50" height="50" relative="1" as="geometry">
                        <mxPoint x="201" y="930" as="sourcePoint"/>
                        <mxPoint x="201.49599999999998" y="1057" as="targetPoint"/>
                    </mxGeometry>
                </mxCell>
                <mxCell id="85" value="&lt;font style=&quot;font-size: 15px;&quot;&gt;Data&lt;/font&gt;" style="edgeLabel;html=1;align=center;verticalAlign=middle;resizable=0;points=[];" vertex="1" connectable="0" parent="84">
                    <mxGeometry x="-0.1778" y="1" relative="1" as="geometry">
                        <mxPoint as="offset"/>
                    </mxGeometry>
                </mxCell>
                <mxCell id="86" value="" style="endArrow=classic;html=1;strokeWidth=4;fontSize=15;entryX=1;entryY=0.25;entryDx=0;entryDy=0;exitX=0.041;exitY=0.213;exitDx=0;exitDy=0;exitPerimeter=0;" edge="1" parent="1" source="73" target="55">
                    <mxGeometry width="50" height="50" relative="1" as="geometry">
                        <mxPoint x="476" y="210" as="sourcePoint"/>
                        <mxPoint x="526" y="160" as="targetPoint"/>
                    </mxGeometry>
                </mxCell>
                <mxCell id="87" value="&lt;font style=&quot;font-size: 41px;&quot;&gt;Structure of Tomasulo&lt;/font&gt;" style="text;strokeColor=none;fillColor=none;html=1;fontSize=24;fontStyle=1;verticalAlign=middle;align=center;" vertex="1" parent="1">
                    <mxGeometry x="152" y="120" width="525" height="100" as="geometry"/>
                </mxCell>
                <mxCell id="88" value="" style="endArrow=classic;html=1;strokeWidth=2;fontSize=41;" edge="1" parent="1">
                    <mxGeometry width="50" height="50" relative="1" as="geometry">
                        <mxPoint x="528" y="360" as="sourcePoint"/>
                        <mxPoint x="530" y="490" as="targetPoint"/>
                    </mxGeometry>
                </mxCell>
                <mxCell id="90" value="#reg" style="edgeLabel;html=1;align=center;verticalAlign=middle;resizable=0;points=[];fontSize=15;" vertex="1" connectable="0" parent="88">
                    <mxGeometry x="-0.2675" y="1" relative="1" as="geometry">
                        <mxPoint as="offset"/>
                    </mxGeometry>
                </mxCell>
                <mxCell id="91" value="" style="endArrow=classic;html=1;strokeWidth=2;fontSize=41;exitX=0.25;exitY=1;exitDx=0;exitDy=0;" edge="1" parent="1">
                    <mxGeometry width="50" height="50" relative="1" as="geometry">
                        <mxPoint x="608.5" y="360" as="sourcePoint"/>
                        <mxPoint x="606" y="490" as="targetPoint"/>
                    </mxGeometry>
                </mxCell>
                <mxCell id="92" value="data" style="edgeLabel;html=1;align=center;verticalAlign=middle;resizable=0;points=[];fontSize=15;" vertex="1" connectable="0" parent="91">
                    <mxGeometry x="-0.2675" y="1" relative="1" as="geometry">
                        <mxPoint as="offset"/>
                    </mxGeometry>
                </mxCell>
                <mxCell id="95" value="" style="endArrow=classic;html=1;strokeWidth=2;fontSize=15;entryX=0.5;entryY=0;entryDx=0;entryDy=0;" edge="1" parent="1" target="54">
                    <mxGeometry width="50" height="50" relative="1" as="geometry">
                        <mxPoint x="571" y="580" as="sourcePoint"/>
                        <mxPoint x="569" y="660" as="targetPoint"/>
                    </mxGeometry>
                </mxCell>
                <mxCell id="96" value="" style="endArrow=classic;html=1;strokeWidth=4;fontSize=15;entryX=1;entryY=0.5;entryDx=0;entryDy=0;exitX=0.57;exitY=0.114;exitDx=0;exitDy=0;exitPerimeter=0;" edge="1" parent="1" source="73" target="54">
                    <mxGeometry width="50" height="50" relative="1" as="geometry">
                        <mxPoint x="766" y="713" as="sourcePoint"/>
                        <mxPoint x="676" y="711" as="targetPoint"/>
                    </mxGeometry>
                </mxCell>
            </root>
        </mxGraphModel>
    </diagram>
</mxfile>